<svg width="16" height="17" viewBox="0 0 16 17" fill="none" xmlns="http://www.w3.org/2000/svg">
<g clip-path="url(#clip0_33_2262)">
<path d="M2.16113 13.3479C2.16113 13.6615 2.22291 13.972 2.34292 14.2618C2.46294 14.5515 2.63886 14.8148 2.86062 15.0366C3.08239 15.2583 3.34567 15.4343 3.63542 15.5543C3.92517 15.6743 4.23572 15.7361 4.54935 15.7361C4.86297 15.7361 5.17353 15.6743 5.46328 15.5543C5.75303 15.4343 6.0163 15.2583 6.23807 15.0366C6.45984 14.8148 6.63575 14.5515 6.75577 14.2618C6.87579 13.972 6.93756 13.6615 6.93756 13.3479C6.93756 13.0342 6.87579 12.7237 6.75577 12.4339C6.63575 12.1442 6.45984 11.8809 6.23807 11.6591C6.0163 11.4374 5.75303 11.2615 5.46328 11.1414C5.17353 11.0214 4.86297 10.9596 4.54935 10.9596C4.23572 10.9596 3.92517 11.0214 3.63542 11.1414C3.34567 11.2615 3.08239 11.4374 2.86062 11.6591C2.63886 11.8809 2.46294 12.1442 2.34292 12.4339C2.22291 12.7237 2.16113 13.0342 2.16113 13.3479Z" stroke="#067070" stroke-width="1.14" stroke-linecap="round" stroke-linejoin="round"/>
<path d="M9.0625 13.3479C9.0625 13.9812 9.31411 14.5887 9.76199 15.0366C10.2099 15.4845 10.8173 15.7361 11.4507 15.7361C12.0841 15.7361 12.6916 15.4845 13.1394 15.0366C13.5873 14.5887 13.8389 13.9812 13.8389 13.3479C13.8389 12.7145 13.5873 12.107 13.1394 11.6591C12.6916 11.2113 12.0841 10.9596 11.4507 10.9596C10.8173 10.9596 10.2099 11.2113 9.76199 11.6591C9.31411 12.107 9.0625 12.7145 9.0625 13.3479Z" stroke="#067070" stroke-width="1.14" stroke-linecap="round" stroke-linejoin="round"/>
<path d="M6.93652 13.3475C6.93652 13.3475 6.93652 12.2855 7.99849 12.2855C9.06047 12.2855 9.06047 13.3475 9.06047 13.3475" stroke="#067070" stroke-width="1.14" stroke-linecap="round" stroke-linejoin="round"/>
<path d="M1.10059 8.31456H14.8992" stroke="#067070" stroke-width="1.14" stroke-linecap="round" stroke-linejoin="round"/>
<path d="M3.60659 2.8329C3.6919 2.3211 4.13472 1.94599 4.65357 1.94599H11.3466C11.8654 1.94599 12.3082 2.32112 12.3936 2.83294L13.3071 8.31456H2.69287L3.60659 2.8329Z" stroke="#067070" stroke-width="1.14" stroke-linecap="round" stroke-linejoin="round"/>
</g>
<defs>
<clipPath id="clip0_33_2262">
<rect width="16" height="16" fill="white" transform="translate(0 0.845276)"/>
</clipPath>
</defs>
</svg>
