<svg width="32" height="33" viewBox="0 0 32 33" fill="none" xmlns="http://www.w3.org/2000/svg">
<g clip-path="url(#clip0_83_578)">
<path fill-rule="evenodd" clip-rule="evenodd" d="M4.57139 12.8453C2.68567 12.8453 1.1131 14.3858 1.22053 16.3333C1.37596 19.1607 1.79196 23.5973 2.69939 27.5104C3.20224 29.6818 4.83882 31.4281 7.16339 31.7641C9.08339 32.043 11.9565 32.2738 16 32.2738C20.0434 32.2738 22.9142 32.0453 24.8365 31.7641C27.1611 31.4281 28.7977 29.6818 29.3005 27.5127C30.2102 23.5973 30.624 19.1607 30.7794 16.3356C30.8845 14.3858 29.312 12.8453 27.4285 12.8453H4.57139Z" fill="#92C6C5"/>
<path fill-rule="evenodd" clip-rule="evenodd" d="M13.4787 1.41672C12.5069 1.41672 11.575 1.80274 10.8879 2.48988C10.2007 3.17701 9.8147 4.10896 9.8147 5.08072C9.8147 6.05247 10.2007 6.98442 10.8879 7.67156C11.575 8.35869 12.5069 8.74472 13.4787 8.74472H18.521C19.4927 8.74472 20.4247 8.35869 21.1118 7.67156C21.799 6.98442 22.185 6.05247 22.185 5.08072C22.185 4.10896 21.799 3.17701 21.1118 2.48988C20.4247 1.80274 19.4927 1.41672 18.521 1.41672H13.4787Z" fill="#92C6C5"/>
<path fill-rule="evenodd" clip-rule="evenodd" d="M21.616 7.04643C21.9483 6.52622 22.1431 5.93021 22.1823 5.31417C22.2215 4.69814 22.1037 4.08225 21.84 3.52414C21.9897 3.5353 22.1372 3.56604 22.2789 3.61557C23.952 4.20588 25.4008 5.30072 26.4255 6.74913C27.4502 8.19755 28.0003 9.92819 28 11.7024V12.891C27.8111 12.8598 27.62 12.8445 27.4286 12.8453H24.5714V11.7024C24.5714 9.64528 23.3646 7.86928 21.616 7.04643ZM10.16 3.52414C9.89691 4.08201 9.77946 4.69744 9.81863 5.31299C9.85781 5.92854 10.0523 6.52412 10.384 7.04414C9.49978 7.45969 8.75223 8.1185 8.22883 8.94347C7.70543 9.76844 7.42785 10.7254 7.42857 11.7024V12.8453H4.57143C4.37714 12.8453 4.18514 12.8613 4 12.891V11.7024C4.00014 9.92858 4.55047 8.19845 5.57514 6.75049C6.5998 5.30253 8.04836 4.20803 9.72114 3.61785C9.8627 3.56755 10.0102 3.53604 10.16 3.52414Z" fill="#067070"/>
<path fill-rule="evenodd" clip-rule="evenodd" d="M12.1004 16.8202C11.7216 16.8202 11.3582 16.9707 11.0903 17.2386C10.8224 17.5065 10.6719 17.8699 10.6719 18.2487V19.3916C10.6719 19.7705 10.8224 20.1338 11.0903 20.4017C11.3582 20.6697 11.7216 20.8202 12.1004 20.8202C12.4793 20.8202 12.8427 20.6697 13.1106 20.4017C13.3785 20.1338 13.529 19.7705 13.529 19.3916V18.2487C13.529 17.8699 13.3785 17.5065 13.1106 17.2386C12.8427 16.9707 12.4793 16.8202 12.1004 16.8202ZM10.665 25.1653C10.8832 24.8561 11.2151 24.6462 11.5879 24.5815C11.9607 24.5168 12.344 24.6026 12.6536 24.8202C13.3553 25.3139 14.5393 25.8533 16.1736 25.8533C17.7987 25.8533 18.8685 25.3184 19.4513 24.8613C19.7502 24.6279 20.1295 24.5228 20.5059 24.5691C20.8822 24.6154 21.2248 24.8093 21.4582 25.1082C21.6916 25.407 21.7967 25.7864 21.7504 26.1627C21.7041 26.5391 21.5102 26.8816 21.2113 27.115C20.1462 27.9447 18.4639 28.7104 16.1713 28.7104C13.8856 28.7104 12.137 27.9493 11.0102 27.1562C10.701 26.938 10.491 26.6061 10.4263 26.2333C10.3616 25.8604 10.4475 25.4772 10.665 25.1676V25.1653ZM18.2399 18.2487C18.2399 17.8699 18.3904 17.5065 18.6583 17.2386C18.9262 16.9707 19.2896 16.8202 19.6684 16.8202C20.0473 16.8202 20.4107 16.9707 20.6786 17.2386C20.9465 17.5065 21.097 17.8699 21.097 18.2487V19.3916C21.097 19.7705 20.9465 20.1338 20.6786 20.4017C20.4107 20.6697 20.0473 20.8202 19.6684 20.8202C19.2896 20.8202 18.9262 20.6697 18.6583 20.4017C18.3904 20.1338 18.2399 19.7705 18.2399 19.3916V18.2487Z" fill="#067070"/>
</g>
<defs>
<clipPath id="clip0_83_578">
<rect width="32" height="32" fill="white" transform="translate(0 0.845276)"/>
</clipPath>
</defs>
</svg>
