<svg width="32" height="33" viewBox="0 0 32 33" fill="none" xmlns="http://www.w3.org/2000/svg">
<g clip-path="url(#clip0_81_423)">
<path fill-rule="evenodd" clip-rule="evenodd" d="M14.4458 25.4464C15.5658 25.4761 16.6858 25.4738 17.8104 25.4395C17.8316 25.5495 17.8423 25.6613 17.8424 25.7733V30.9893C17.8424 31.4439 17.6618 31.88 17.3403 32.2014C17.0188 32.5229 16.5828 32.7035 16.1281 32.7035C15.6734 32.7035 15.2374 32.5229 14.9159 32.2014C14.5944 31.88 14.4138 31.4439 14.4138 30.9893V25.7733C14.4138 25.6613 14.423 25.5515 14.4435 25.4464H14.4458Z" fill="#067070"/>
<path fill-rule="evenodd" clip-rule="evenodd" d="M16.2537 1.50354C16.1746 1.46409 16.0873 1.44356 15.9989 1.44356C15.9104 1.44356 15.8232 1.46409 15.744 1.50354C11.7806 3.4784 8.1966 7.04411 6.25145 11.1081C6.13041 11.3571 6.08372 11.6357 6.11696 11.9106C6.1502 12.1854 6.26197 12.4449 6.43888 12.6578C6.61368 12.8657 6.83258 13.032 7.07969 13.1447C7.3268 13.2574 7.5959 13.3136 7.86745 13.3093H9.03774C9.35774 13.3093 9.56802 13.4693 9.65717 13.6384C9.74402 13.7984 9.73945 13.9835 9.58631 14.155C7.42174 16.555 5.90631 18.731 3.92231 22.1504C3.32117 23.1858 4.05945 24.3058 5.14288 24.4955C12.5143 25.7915 19.4857 25.7915 26.8572 24.4955C27.9383 24.3058 28.6766 23.1858 28.0755 22.1504C26.0915 18.731 24.5783 16.555 22.4137 14.155C22.2606 13.9835 22.256 13.7984 22.3429 13.6384C22.4343 13.4693 22.64 13.3093 22.96 13.3093H24.1303C24.4022 13.3139 24.6718 13.2579 24.9193 13.1452C25.1669 13.0325 25.3861 12.866 25.5612 12.6578C25.7383 12.445 25.8503 12.1855 25.8835 11.9106C25.9168 11.6357 25.8699 11.357 25.7486 11.1081C23.8057 7.04411 20.2172 3.4784 16.2537 1.50354Z" fill="#92C6C5"/>
</g>
<defs>
<clipPath id="clip0_81_423">
<rect width="32" height="32" fill="white" transform="translate(0 0.845261)"/>
</clipPath>
</defs>
</svg>
