<svg width="32" height="33" viewBox="0 0 32 33" fill="none" xmlns="http://www.w3.org/2000/svg">
<path d="M20.5418 9.66812L22.7133 4.74012C22.9853 4.12297 23.143 3.37098 22.5898 2.98926C20.327 1.41669 11.5521 1.41669 9.28927 2.98926C8.73841 3.37098 8.89612 4.12526 9.16584 4.74012L11.351 9.69783C5.56126 11.1973 2.38184 15.7253 2.38184 22.7195C2.38184 31.403 7.28469 31.8807 16.0001 31.8807C24.7156 31.8807 29.6184 31.4007 29.6184 22.7195C29.6184 15.6818 26.3978 11.1401 20.5418 9.66812Z" fill="#92C6C5"/>
<path d="M17.7303 13.1881C17.7303 12.8092 17.5798 12.4459 17.3119 12.178C17.044 11.9101 16.6806 11.7595 16.3017 11.7595C15.9229 11.7595 15.5595 11.9101 15.2916 12.178C15.0237 12.4459 14.8732 12.8092 14.8732 13.1881V14.4361C12.8229 14.9824 11.5634 16.5481 11.5634 18.3904C11.5634 19.067 11.712 19.6955 12.0434 20.2464C12.3703 20.795 12.8206 21.1721 13.2869 21.435C14.0937 21.8921 15.0926 22.075 15.808 22.2075L15.9269 22.2304C16.7932 22.3904 17.3212 22.5093 17.6617 22.7081C17.9772 22.8933 18.0617 23.2933 17.7577 23.5493C17.5314 23.7413 17.1497 23.9378 16.64 24.0521C15.616 24.2761 14.4297 24.0841 13.5817 23.3115C13.302 23.056 12.9322 22.9221 12.5537 22.9393C12.1752 22.9564 11.819 23.1232 11.5634 23.403C11.3079 23.6827 11.174 24.0526 11.1912 24.4311C11.2083 24.8096 11.3751 25.1657 11.6549 25.4213C12.5513 26.2362 13.6731 26.7612 14.8732 26.9275V28.0247C14.8732 28.4036 15.0237 28.7669 15.2916 29.0348C15.5595 29.3028 15.9229 29.4533 16.3017 29.4533C16.6806 29.4533 17.044 29.3028 17.3119 29.0348C17.5798 28.7669 17.7303 28.4036 17.7303 28.0247V26.7173C18.4142 26.5192 19.051 26.1849 19.6023 25.7344C20.2469 25.1881 20.8114 24.3675 20.8114 23.3298C20.8114 22.6487 20.6652 22.0155 20.3429 21.4601C20.0442 20.9544 19.6187 20.5353 19.1086 20.2441C18.2812 19.7595 17.2572 19.5698 16.5303 19.435L16.448 19.4213C15.5726 19.259 15.0423 19.147 14.6949 18.9504C14.614 18.9118 14.5446 18.8527 14.4937 18.779C14.4709 18.7447 14.4206 18.6418 14.4206 18.3904C14.4206 18.139 14.5166 17.8715 14.7497 17.643C14.9783 17.4167 15.4126 17.1653 16.1714 17.1013C16.8366 17.0441 17.3806 17.2407 17.7737 17.467C18.048 17.627 18.2057 17.7573 18.3292 17.8853C18.5844 18.1653 18.9404 18.3325 19.3189 18.3501C19.6974 18.3677 20.0674 18.2342 20.3474 17.979C20.6275 17.7238 20.7947 17.3677 20.8123 16.9892C20.8299 16.6107 20.6964 16.2408 20.4412 15.9607C20.3288 15.8391 20.2089 15.7246 20.0823 15.6178C19.4019 15.0353 18.5962 14.6176 17.728 14.3973V13.1858L17.7303 13.1881Z" fill="#067070"/>
</svg>
