<svg width="32" height="33" viewBox="0 0 32 33" fill="none" xmlns="http://www.w3.org/2000/svg">
<g clip-path="url(#clip0_82_500)">
<path fill-rule="evenodd" clip-rule="evenodd" d="M6.95308 26.4704L6.22851 25.7481C1.01708 20.5344 5.00565 13.7367 8.83422 8.86812C11.0537 6.04984 16.7999 1.22012 16.7999 1.22012L17.1748 1.59727C18.0388 2.46127 18.7337 3.50812 19.2365 4.64869C19.7822 4.05744 20.4573 3.60056 21.2091 3.31384C21.6353 3.14133 22.0702 2.99103 22.5119 2.86355C25.1748 2.11384 28.1942 1.98812 29.7279 1.98355C29.862 1.98264 29.9948 2.0084 30.1188 2.05933C30.2428 2.11027 30.3554 2.18536 30.45 2.28024C30.5447 2.37511 30.6195 2.48788 30.6702 2.61196C30.7208 2.73604 30.7463 2.86896 30.7451 3.00298C30.7382 4.53441 30.6148 7.55612 29.8651 10.219C29.738 10.6609 29.5877 11.0958 29.4148 11.5218C29.1202 12.2674 28.6562 12.9341 28.0594 13.4693C29.1977 13.9721 30.2422 14.6647 31.1039 15.5264L31.4788 15.9036C31.4788 15.9036 26.6514 21.6453 23.8331 23.8624C18.9622 27.6933 12.1668 31.6818 6.95308 26.4681V26.4704Z" fill="#92C6C5"/>
<path fill-rule="evenodd" clip-rule="evenodd" d="M21.9794 12.6898C23.9703 12.3241 26.144 12.6236 28.0594 13.4693C28.6436 12.9459 29.1008 12.2963 29.3966 11.5698C28.0214 10.9061 26.5423 10.4839 25.024 10.3218C24.1554 10.2304 23.264 10.2258 22.3772 10.3218C22.4716 9.44285 22.4716 8.55627 22.3772 7.67727C22.217 6.17176 21.8011 4.70462 21.1474 3.33899C20.4191 3.62567 19.7651 4.07342 19.2343 4.6487C20.096 6.60299 20.3886 8.83156 19.9863 10.8544L19.9566 10.9938L14.2606 16.6921C14.3365 15.2409 14.1045 13.79 13.5798 12.4349C13.0551 11.0797 12.2495 9.85092 11.216 8.82928L9.97487 7.55842C9.36933 8.19829 8.80441 8.87542 8.28344 9.58585L9.34401 10.6716L9.35316 10.6807C10.0857 11.3977 10.6665 12.2547 11.061 13.2008C11.4554 14.147 11.6553 15.1628 11.649 16.1878C11.6426 17.2128 11.4299 18.2261 11.0237 19.1672C10.6175 20.1083 10.0261 20.9581 9.28458 21.6658L9.2503 21.7024C9.17303 21.7752 9.09683 21.8491 9.02173 21.9241L7.86973 23.083L5.30973 25.643L5.24344 25.7116L0.891441 30.0636C0.769274 30.1857 0.672366 30.3308 0.606249 30.4904C0.540133 30.65 0.506104 30.8211 0.506104 30.9938C0.506104 31.1666 0.540133 31.3377 0.606249 31.4973C0.672366 31.6569 0.769274 31.802 0.891441 31.9241C1.01361 32.0463 1.15864 32.1432 1.31826 32.2093C1.47788 32.2754 1.64896 32.3095 1.82173 32.3095C1.9945 32.3095 2.16557 32.2754 2.32519 32.2093C2.48481 32.1432 2.62985 32.0463 2.75201 31.9241L8.49601 26.1778L8.4983 26.1756L9.7303 24.9413L11.0834 23.5858C14.176 20.6738 19.008 20.6464 21.9817 23.6201L21.9909 23.627L22.9349 24.555C23.2412 24.3264 23.5406 24.0933 23.8332 23.8624C24.1874 23.5836 24.5737 23.2498 24.9783 22.8773L23.8354 21.7573C22.7999 20.7211 21.5537 19.9196 20.1813 19.4073C18.8089 18.895 17.3424 18.6839 15.8812 18.7881L21.984 12.6853L21.9794 12.6898Z" fill="#067070"/>
</g>
<defs>
<clipPath id="clip0_82_500">
<rect width="32" height="32" fill="white" transform="translate(0 0.845276)"/>
</clipPath>
</defs>
</svg>
