<svg width="32" height="33" viewBox="0 0 32 33" fill="none" xmlns="http://www.w3.org/2000/svg">
<path d="M9.14295 17.8464C14.1715 17.8464 17.0012 15.0167 17.0012 9.98814C17.0012 4.95957 14.1715 2.12985 9.14295 2.12985C4.11438 2.12985 1.28467 4.95957 1.28467 9.98814C1.28467 15.0167 4.11438 17.8464 9.14295 17.8464Z" fill="#067070"/>
<path fill-rule="evenodd" clip-rule="evenodd" d="M13.8287 3.28414C12.5944 2.52528 11.0195 2.13214 9.14295 2.13214C4.11438 2.13214 1.28467 4.95957 1.28467 9.98814C1.28467 11.867 1.6801 13.4396 2.43895 14.6739L13.8264 3.28414H13.8287ZM4.45724 16.6921C5.69152 17.451 7.2641 17.8464 9.14295 17.8464C14.1715 17.8464 17.0012 15.0167 17.0012 9.98814C17.0012 8.10928 16.6058 6.53671 15.847 5.30243L4.45953 16.6944L4.45724 16.6921Z" fill="#92C6C5"/>
<path d="M16.7817 17.7413L19.44 15.083C20.7091 13.8139 22.4304 13.1009 24.2252 13.1009C26.0199 13.1009 27.7412 13.8139 29.0103 15.083C30.2794 16.3521 30.9924 18.0734 30.9924 19.8681C30.9924 21.6629 30.2794 23.3842 29.0103 24.6533L26.352 27.3116L16.7817 17.7413Z" fill="#92C6C5"/>
<path d="M14.1257 20.3996C12.8566 21.6684 12.1435 23.3893 12.1433 25.1839C12.1431 26.9785 12.8558 28.6996 14.1246 29.9687C15.3934 31.2378 17.1143 31.9509 18.9089 31.9511C20.7035 31.9513 22.4246 31.2386 23.6937 29.9698L26.352 27.3116L16.7817 17.7413L14.1257 20.3996Z" fill="#067070"/>
</svg>
