<svg width="32" height="33" viewBox="0 0 32 33" fill="none" xmlns="http://www.w3.org/2000/svg">
<g clip-path="url(#clip0_88_459)">
<path fill-rule="evenodd" clip-rule="evenodd" d="M14.0343 2.20299C13.265 1.68159 12.3569 1.40289 11.4275 1.40289C10.4981 1.40289 9.59002 1.68159 8.82063 2.20299C6.43074 3.85982 4.30468 5.86797 2.51434 8.15956C2.45439 8.23964 2.4052 8.32725 2.36806 8.42013C1.91777 9.5447 1.60691 11.0853 1.38749 12.7721C1.15893 14.6369 1.01098 16.5106 0.944057 18.3881C0.807197 21.9682 0.8255 25.5525 0.998914 29.131C1.04706 29.9857 1.4225 30.7891 2.04731 31.3743C2.67212 31.9595 3.4983 32.2817 4.35434 32.2738H18.5029C20.2538 32.2738 21.7646 30.9436 21.8583 29.1333C22.0311 25.554 22.0486 21.9689 21.9109 18.3881C21.8447 16.5107 21.6976 14.6369 21.4698 12.7721C21.2481 11.0853 20.9395 9.5447 20.4892 8.42013C20.4521 8.32725 20.4029 8.23964 20.3429 8.15956C18.5519 5.86778 16.4251 3.85961 14.0343 2.20299Z" fill="#92C6C5"/>
<path fill-rule="evenodd" clip-rule="evenodd" d="M18.5281 32.2739C19.3794 32.2753 20.199 31.9505 20.8183 31.3665C21.4377 30.7824 21.8099 29.9833 21.8584 29.1333C22.0311 25.554 22.0486 21.9689 21.9109 18.3882C21.8549 16.9188 21.7543 15.4514 21.6092 13.9882H25.7304C27.8926 13.9882 30.1006 15.0853 30.5761 17.5927C31.1155 20.4567 31.4538 25.2179 30.8504 31.2453C30.8221 31.527 30.6902 31.7882 30.4803 31.9782C30.2704 32.1682 29.9975 32.2736 29.7144 32.2739H18.5281Z" fill="#067070"/>
<path fill-rule="evenodd" clip-rule="evenodd" d="M7.26416 12.2738C7.26416 11.4853 7.90416 10.8453 8.69273 10.8453H14.1647C14.3523 10.8453 14.5381 10.8822 14.7114 10.954C14.8847 11.0258 15.0422 11.131 15.1749 11.2637C15.3075 11.3963 15.4128 11.5538 15.4846 11.7272C15.5564 11.9005 15.5933 12.0862 15.5933 12.2738C15.5933 12.4615 15.5564 12.6472 15.4846 12.8205C15.4128 12.9939 15.3075 13.1513 15.1749 13.284C15.0422 13.4167 14.8847 13.5219 14.7114 13.5937C14.5381 13.6655 14.3523 13.7024 14.1647 13.7024H8.69273C8.31385 13.7024 7.95049 13.5519 7.68258 13.284C7.41467 13.0161 7.26416 12.6527 7.26416 12.2738ZM7.26416 19.131C7.26416 18.3424 7.90416 17.7024 8.69273 17.7024H14.1647C14.5436 17.7024 14.907 17.8529 15.1749 18.1208C15.4428 18.3887 15.5933 18.7521 15.5933 19.131C15.5933 19.5099 15.4428 19.8732 15.1749 20.1411C14.907 20.4091 14.5436 20.5596 14.1647 20.5596H8.69273C8.31385 20.5596 7.95049 20.4091 7.68258 20.1411C7.41467 19.8732 7.26416 19.5099 7.26416 19.131ZM7.84702 32.3356V28.1596C7.84702 27.2096 8.22438 26.2986 8.89608 25.6269C9.56778 24.9552 10.4788 24.5778 11.4287 24.5778C12.3787 24.5778 13.2897 24.9552 13.9614 25.6269C14.6331 26.2986 15.0104 27.2096 15.0104 28.1596V32.3401H7.84702V32.3356Z" fill="#067070"/>
</g>
<defs>
<clipPath id="clip0_88_459">
<rect width="32" height="32" fill="white" transform="translate(0 0.845276)"/>
</clipPath>
</defs>
</svg>
