<svg width="24" height="24" viewBox="0 0 24 24" fill="none" xmlns="http://www.w3.org/2000/svg">
<path d="M12 22.3469C17.7146 22.3469 22.347 17.7145 22.347 12C22.347 6.28554 17.7146 1.65306 12 1.65306C6.28556 1.65306 1.65308 6.28554 1.65308 12C1.65308 17.7145 6.28556 22.3469 12 22.3469Z" stroke="#0C2E32" stroke-linecap="round" stroke-linejoin="round"/>
<path d="M9.6123 16.7755H14.3878" stroke="#0C2E32" stroke-linecap="round" stroke-linejoin="round"/>
<path d="M12 16.7755V11.2041H10.4082" stroke="#0C2E32" stroke-linecap="round" stroke-linejoin="round"/>
<path d="M12 7.62246C11.7802 7.62246 11.6021 7.44428 11.6021 7.2245C11.6021 7.00471 11.7802 6.82654 12 6.82654" stroke="#0C2E32" stroke-linecap="round" stroke-linejoin="round"/>
<path d="M12 7.62246C12.2198 7.62246 12.398 7.44428 12.398 7.2245C12.398 7.00471 12.2198 6.82654 12 6.82654" stroke="#0C2E32" stroke-linecap="round" stroke-linejoin="round"/>
</svg>
