<svg width="22" height="22" viewBox="0 0 22 22" fill="none" xmlns="http://www.w3.org/2000/svg">
<path d="M11.5731 21.2355C11.2043 21.3778 10.7958 21.3778 10.427 21.2355C7.54683 20.1063 5.07381 18.1352 3.33035 15.5797C1.58691 13.0242 0.653929 10.0026 0.653076 6.90898V2.2449C0.653076 1.82271 0.820787 1.41783 1.11931 1.1193C1.41784 0.820772 1.82273 0.653061 2.24491 0.653061H19.7551C20.1773 0.653061 20.5822 0.820772 20.8807 1.1193C21.1792 1.41783 21.347 1.82271 21.347 2.2449V6.89306C21.3493 9.98939 20.4178 13.0145 18.6741 15.5731C16.9306 18.1319 14.4557 20.1051 11.5731 21.2355Z" stroke="#0C2E32" stroke-linecap="round" stroke-linejoin="round"/>
<path d="M7.41848 8.61224H14.5817C15.0593 8.61224 15.3777 8.93061 15.3777 9.40816V14.1837C15.3777 14.6612 15.0593 14.9796 14.5817 14.9796H7.41848C6.94093 14.9796 6.62256 14.6612 6.62256 14.1837V9.40816C6.62256 8.93061 6.94093 8.61224 7.41848 8.61224Z" stroke="#0C2E32" stroke-linecap="round" stroke-linejoin="round"/>
<path d="M7.81641 8.61224V7.0204C7.81641 5.26938 9.24906 3.83673 11.0001 3.83673C12.7511 3.83673 14.1838 5.26938 14.1838 7.0204V8.61224" stroke="#0C2E32" stroke-linecap="round" stroke-linejoin="round"/>
</svg>
