<svg width="42" height="32" viewBox="0 0 42 32" fill="none" xmlns="http://www.w3.org/2000/svg">
<g clip-path="url(#clip0_103_2)">
<path d="M20.7256 24C29.5857 24 37.3121 19.17 41.4512 12C37.3154 4.83 29.5857 0 20.7256 0C11.8655 0 4.13914 4.83 0 12C4.13914 19.17 11.8689 24 20.7256 24ZM20.7256 4.23667C25.0044 4.23667 28.4686 7.71333 28.4686 12C28.4686 16.2867 25.0011 19.7633 20.7256 19.7633C16.4502 19.7633 12.9826 16.2867 12.9826 12C12.9826 7.71333 16.4502 4.23667 20.7256 4.23667Z" fill="#0C2E32"/>
<path d="M22.0555 13.6667C23.708 13.6667 25.0476 12.3235 25.0476 10.6667C25.0476 9.00981 23.708 7.66666 22.0555 7.66666C20.4029 7.66666 19.0633 9.00981 19.0633 10.6667C19.0633 12.3235 20.4029 13.6667 22.0555 13.6667Z" fill="#0C2E32"/>
<path d="M20.7256 28.4233C15.5226 28.4233 10.5822 27.3067 6.12725 25.3C4.95034 26.0033 3.83327 26.79 2.77272 27.65C8.15194 30.43 14.2559 32 20.7256 32C27.1953 32 33.2993 30.43 38.6785 27.65C37.6213 26.79 36.5009 26.0033 35.324 25.3C30.869 27.3067 25.9253 28.4233 20.7256 28.4233Z" fill="#0C2E32"/>
</g>
<defs>
<clipPath id="clip0_103_2">
<rect width="41.4545" height="32" fill="white"/>
</clipPath>
</defs>
</svg>
