<svg width="32" height="33" viewBox="0 0 32 33" fill="none" xmlns="http://www.w3.org/2000/svg">
<g clip-path="url(#clip0_82_329)">
<path fill-rule="evenodd" clip-rule="evenodd" d="M3.96792 28.8773C3.83077 28.7424 3.60678 28.3675 3.6982 27.4053C3.78963 26.459 4.17135 25.195 4.90049 23.6773C5.59561 22.2663 6.40277 20.9134 7.3142 19.6315C9.1263 21.7451 11.0978 23.7166 13.2113 25.5287C11.9303 26.4408 10.5781 27.2487 9.16792 27.9447C7.6502 28.6761 6.3862 29.0578 5.43992 29.147C4.47763 29.2384 4.10277 29.0121 3.96792 28.8773ZM15.9999 27.7504C14.3227 29.0056 12.5339 30.1043 10.6559 31.0327C8.93706 31.8601 7.26392 32.4178 5.7622 32.5595C4.2742 32.7013 2.68792 32.4453 1.54277 31.3024C0.397632 30.1573 0.143918 28.571 0.285632 27.083C0.427346 25.5813 0.985061 23.9058 1.81249 22.1893C2.62392 20.5047 3.73249 18.6944 5.09477 16.8453C3.83957 15.168 2.74087 13.3792 1.81249 11.5013C0.982775 9.7824 0.427346 8.10925 0.285632 6.60754C0.143918 5.11954 0.397632 3.53325 1.54277 2.38811C2.68792 1.24525 4.2742 0.989255 5.7622 1.13097C7.26392 1.27268 8.93935 1.8304 10.6559 2.65783C12.3405 3.46925 14.1508 4.57783 15.9999 5.94011C17.6771 4.6849 19.466 3.5862 21.3439 2.65783C23.0628 1.82811 24.7359 1.27268 26.2376 1.13097C27.7256 0.989255 29.3119 1.24297 30.4571 2.38811C31.5999 3.53325 31.8559 5.11954 31.7142 6.60754C31.5725 8.10925 31.0148 9.78468 30.1873 11.5013C29.3759 13.1858 28.2673 14.9961 26.9051 16.8453C28.1602 18.5225 29.2589 20.3113 30.1873 22.1893C31.0148 23.9081 31.5725 25.5813 31.7142 27.083C31.8559 28.571 31.5999 30.1573 30.4571 31.3024C29.3119 32.4475 27.7256 32.7013 26.2376 32.5595C24.7359 32.4178 23.0605 31.8601 21.3439 31.0327C19.466 30.1042 17.6772 29.0056 15.9999 27.7504ZM24.6856 19.6315C25.5962 20.914 26.4033 22.2668 27.0993 23.6773C27.8308 25.195 28.2125 26.459 28.3016 27.4053C28.3931 28.3675 28.1668 28.7424 28.0319 28.8773C27.8971 29.0144 27.5222 29.2384 26.5599 29.147C25.6136 29.0555 24.3496 28.6738 22.8319 27.9447C21.4209 27.2496 20.068 26.4425 18.7862 25.531C20.8998 23.7189 22.8713 21.7474 24.6833 19.6338L24.6856 19.6315ZM22.5508 16.8453C21.6068 17.9813 20.5622 19.131 19.4239 20.2693C18.331 21.3634 17.1885 22.4068 15.9999 23.3961C14.8639 22.4521 13.7142 21.4075 12.5759 20.2693C11.4818 19.1764 10.4384 18.0338 9.44906 16.8453C10.3931 15.7093 11.4376 14.5595 12.5759 13.4213C13.6688 12.3271 14.8113 11.2837 15.9999 10.2944C18.3796 12.2727 20.5725 14.4655 22.5508 16.8453ZM24.6856 14.0567C25.6822 12.635 26.4936 11.2681 27.0993 10.0133C27.8308 8.49554 28.2125 7.23154 28.3016 6.28525C28.3931 5.32297 28.1668 4.94811 28.0319 4.81325C27.8971 4.67611 27.5222 4.45211 26.5599 4.54354C25.6136 4.63497 24.3496 5.01668 22.8319 5.74583C21.421 6.44095 20.0681 7.24811 18.7862 8.15954C20.8997 9.97167 22.8712 11.9432 24.6833 14.0567H24.6856ZM13.2113 8.15954C11.9302 7.24821 10.5781 6.44105 9.16792 5.74583C7.6502 5.0144 6.3862 4.63268 5.43992 4.54354C4.47763 4.45211 4.10277 4.6784 3.96792 4.81325C3.83077 4.94811 3.60678 5.32297 3.6982 6.28525C3.78963 7.23154 4.17135 8.49554 4.90049 10.0133C5.50392 11.2681 6.31763 12.635 7.3142 14.059C9.12623 11.9446 11.0977 9.97239 13.2113 8.15954Z" fill="#92C6C5"/>
<path fill-rule="evenodd" clip-rule="evenodd" d="M15.9999 15.0555C16.4546 15.0555 16.8906 15.2362 17.2121 15.5576C17.5336 15.8791 17.7142 16.3152 17.7142 16.7698V17.2498C17.7142 17.7045 17.5336 18.1405 17.2121 18.462C16.8906 18.7835 16.4546 18.9641 15.9999 18.9641C15.5453 18.9641 15.1092 18.7835 14.7877 18.462C14.4663 18.1405 14.2856 17.7045 14.2856 17.2498V16.7698C14.2856 16.3152 14.4663 15.8791 14.7877 15.5576C15.1092 15.2362 15.5453 15.0555 15.9999 15.0555Z" fill="#067070"/>
</g>
<defs>
<clipPath id="clip0_82_329">
<rect width="32" height="32" fill="white" transform="translate(0 0.845261)"/>
</clipPath>
</defs>
</svg>
