<svg width="64" height="64" viewBox="0 0 64 64" fill="none" xmlns="http://www.w3.org/2000/svg">
<g clip-path="url(#clip0_25_223)">
<path fill-rule="evenodd" clip-rule="evenodd" d="M7.91322 0.603427C13.2589 0.204126 18.6248 0.152207 23.9772 0.447998C25.3162 0.510108 26.6071 0.965631 27.6885 1.75759C28.77 2.54955 29.5939 3.64279 30.0572 4.90057L30.9715 7.37371C31.2915 8.25143 32.1235 8.84114 33.0561 8.864L35.7989 8.91885C41.7235 9.03771 45.7326 9.11543 51.1681 9.568C53.8077 9.78694 56.2797 10.9511 58.1299 12.8466C59.98 14.7421 61.084 17.2415 61.2389 19.8857C61.4858 24.1006 61.5955 28.0137 61.5726 31.7257C61.559 31.7134 61.5453 31.7012 61.5315 31.6891C57.4126 27.5657 51.9452 26.0389 46.6104 26.0389C41.2755 26.0389 35.8081 27.5657 31.6846 31.6891C27.5612 35.8126 26.0344 41.28 26.0344 46.6149C26.0344 50.9074 27.0264 55.2869 29.5589 58.9806C23.6696 58.9378 17.7862 58.596 11.9315 57.9566C6.51436 57.3714 1.83779 53.312 1.15208 47.5886C-0.479922 33.8971 0.0457923 20.2377 1.60008 6.70628C1.97494 3.46057 4.57151 0.841141 7.91322 0.603427Z" fill="#92C6C5"/>
<path fill-rule="evenodd" clip-rule="evenodd" d="M38.6057 46.6149C38.6057 43.5886 39.4468 41.7051 40.5714 40.5806C40.7201 40.4377 40.8741 40.3004 41.0331 40.1691C42.1897 39.2549 43.9588 38.6149 46.6102 38.6149L47.1634 38.6194C49.8697 38.72 51.5885 39.5246 52.6445 40.5806C52.7817 40.7177 52.9188 40.8731 53.056 41.0377C53.9702 42.1943 54.6102 43.9634 54.6102 46.6149C54.6102 49.6411 53.7691 51.52 52.6445 52.6491C51.5154 53.7783 49.6365 54.6149 46.6102 54.6149C43.584 54.6149 41.7005 53.7783 40.576 52.6491C39.4468 51.52 38.6102 49.6411 38.6102 46.6149H38.6057ZM46.6057 31.7577C42.3222 31.7577 38.4868 32.9691 35.7257 35.7349C32.9691 38.4914 31.7485 42.3269 31.7485 46.6149C31.7485 50.9029 32.9691 54.7383 35.7257 57.4949C36.0731 57.8423 36.4342 58.1623 36.8091 58.4594C39.4514 60.5394 42.8571 61.4766 46.6102 61.4766L47.168 61.4674C49.952 61.3989 52.5302 60.8 54.7245 59.5794L58.0982 62.9531C58.4121 63.29 58.7906 63.5602 59.2112 63.7476C59.6318 63.935 60.0858 64.0357 60.5461 64.0438C61.0065 64.052 61.4638 63.9673 61.8907 63.7948C62.3176 63.6224 62.7054 63.3657 63.031 63.0402C63.3566 62.7146 63.6132 62.3268 63.7857 61.8999C63.9581 61.473 64.0428 61.0157 64.0347 60.5553C64.0265 60.095 63.9258 59.641 63.7384 59.2204C63.551 58.7998 63.2808 58.4213 62.944 58.1074L59.5748 54.7291C60.8731 52.3886 61.4674 49.6091 61.4674 46.6149C61.4674 42.3269 60.2514 38.4914 57.4902 35.7349C54.7337 32.9691 50.8982 31.7577 46.6102 31.7577H46.6057Z" fill="#067070"/>
</g>
<defs>
<clipPath id="clip0_25_223">
<rect width="64" height="64" fill="white"/>
</clipPath>
</defs>
</svg>
