<svg width="16" height="17" viewBox="0 0 16 17" fill="none" xmlns="http://www.w3.org/2000/svg">
<g clip-path="url(#clip0_33_2356)">
<path d="M4.81573 6.1917C5.98815 6.1917 6.93859 5.24126 6.93859 4.06884C6.93859 2.89642 5.98815 1.94598 4.81573 1.94598C3.64331 1.94598 2.69287 2.89642 2.69287 4.06884C2.69287 5.24126 3.64331 6.1917 4.81573 6.1917Z" stroke="#067070" stroke-width="1.14" stroke-linecap="round" stroke-linejoin="round"/>
<path d="M8.53059 9.90671C8.53059 8.92143 8.13918 7.9765 7.44248 7.27981C6.74579 6.58311 5.80087 6.19171 4.81559 6.19171C3.8303 6.19171 2.88538 6.58311 2.18869 7.27981C1.49199 7.9765 1.10059 8.92143 1.10059 9.90671V11.4989H2.69273L3.22344 15.7446H6.40773L6.93844 11.4989H8.53059V9.90671Z" stroke="#067070" stroke-width="1.14" stroke-linecap="round" stroke-linejoin="round"/>
<path d="M10.6533 10.0834C10.6533 9.66357 10.7778 9.25314 11.0111 8.90403C11.2443 8.55494 11.5759 8.28284 11.9638 8.12217C12.3517 7.96149 12.7785 7.91945 13.1903 8.00136C13.6021 8.08327 13.9804 8.28546 14.2772 8.58234C14.5741 8.87924 14.7763 9.25749 14.8583 9.66928C14.9401 10.0811 14.8981 10.5079 14.7375 10.8958C14.5768 11.2837 14.3046 11.6153 13.9555 11.8485C13.6064 12.0818 13.1961 12.2063 12.7762 12.2063V13.6215" stroke="#067070" stroke-width="1.14" stroke-linecap="round" stroke-linejoin="round"/>
<path d="M12.7761 15.7446C12.6295 15.7446 12.5107 15.6258 12.5107 15.4792C12.5107 15.3326 12.6295 15.2138 12.7761 15.2138" stroke="#067070" stroke-width="1.14" stroke-linecap="round" stroke-linejoin="round"/>
<path d="M12.7764 15.7446C12.923 15.7446 13.0417 15.6258 13.0417 15.4792C13.0417 15.3326 12.923 15.2138 12.7764 15.2138" stroke="#067070" stroke-width="1.14" stroke-linecap="round" stroke-linejoin="round"/>
</g>
<defs>
<clipPath id="clip0_33_2356">
<rect width="16" height="16" fill="white" transform="translate(0 0.845276)"/>
</clipPath>
</defs>
</svg>
