<svg width="17" height="17" viewBox="0 0 17 17" fill="none" xmlns="http://www.w3.org/2000/svg">
<g clip-path="url(#clip0_100_908)">
<path d="M12.2149 12.591H14.3377C14.6192 12.591 14.8892 12.4791 15.0883 12.2801C15.2873 12.0811 15.3992 11.8111 15.3992 11.5296V6.75314C15.3992 6.47163 15.2873 6.20165 15.0883 6.00259C14.8892 5.80354 14.6192 5.69171 14.3377 5.69171H2.66201C2.3805 5.69171 2.11053 5.80354 1.91147 6.00259C1.71241 6.20165 1.60059 6.47163 1.60059 6.75314V11.5296C1.60059 11.8111 1.71241 12.0811 1.91147 12.2801C2.11053 12.4791 2.3805 12.591 2.66201 12.591H4.78487" stroke="#0C2E32" stroke-width="1.14" stroke-linecap="round" stroke-linejoin="round"/>
<path d="M4.78516 10.9988V14.7138C4.78516 14.8546 4.84107 14.9896 4.9406 15.0892C5.04012 15.1886 5.17511 15.2446 5.31587 15.2446H11.6844C11.8252 15.2446 11.9602 15.1886 12.0598 15.0892C12.1592 14.9896 12.2152 14.8546 12.2152 14.7138V10.9988H4.78516Z" stroke="#0C2E32" stroke-width="1.14" stroke-linecap="round" stroke-linejoin="round"/>
<path d="M12.2152 5.6917V1.9767C12.2152 1.83594 12.1592 1.70095 12.0598 1.60143C11.9602 1.5019 11.8252 1.44598 11.6844 1.44598H5.31587C5.17511 1.44598 5.04012 1.5019 4.9406 1.60143C4.84107 1.70095 4.78516 1.83594 4.78516 1.9767V5.6917" stroke="#0C2E32" stroke-width="1.14" stroke-linecap="round" stroke-linejoin="round"/>
<path d="M12.746 8.34528H11.6846" stroke="white" stroke-width="1.14" stroke-linecap="round" stroke-linejoin="round"/>
</g>
<defs>
<clipPath id="clip0_100_908">
<rect width="16" height="16" fill="white" transform="translate(0.5 0.345276)"/>
</clipPath>
</defs>
</svg>
