<svg width="32" height="33" viewBox="0 0 32 33" fill="none" xmlns="http://www.w3.org/2000/svg">
<g clip-path="url(#clip0_88_485)">
<path fill-rule="evenodd" clip-rule="evenodd" d="M1.00332 5.70469C1.02195 5.40716 1.15342 5.12795 1.37091 4.92406C1.58839 4.72017 1.87549 4.60696 2.1736 4.60755L23.353 4.86355C23.6452 4.86863 23.9249 4.98328 24.1365 5.18479C24.3482 5.38629 24.4765 5.65995 24.4959 5.95155C24.6445 7.79612 24.7542 9.70012 24.7542 11.6384C24.7542 11.9538 24.7496 12.2784 24.7427 12.6098C23.6214 12.4859 22.4866 12.5944 21.409 12.9284C20.3314 13.2625 19.3343 13.8149 18.4796 14.5514C17.625 15.2879 16.9313 16.1925 16.4417 17.2089C15.9522 18.2253 15.6773 19.3316 15.6342 20.459C14.7676 21.138 14.1896 22.1193 14.0159 23.2064L13.977 23.451C13.8605 24.1824 13.721 25.051 13.6456 25.9744C13.3553 25.9904 13.0605 25.9973 12.7633 25.9973C9.65018 25.9973 6.94389 25.1653 5.05589 24.3653C2.77018 23.3961 1.47646 21.163 1.2296 18.8293C1.01018 16.7447 0.772461 13.9493 0.772461 11.6384C0.772461 9.81898 0.868461 7.56069 1.00103 5.70469H1.00332Z" fill="#92C6C5"/>
<path d="M1.11523 5.0807C1.11523 4.15041 1.70038 3.22698 3.61581 2.4567C5.57009 1.6727 8.62152 1.19955 12.7609 1.19955C16.8981 1.19955 19.9518 1.6727 21.9061 2.4567C23.8215 3.22698 24.4067 4.14813 24.4067 5.0807C24.4067 6.01098 23.8215 6.93213 21.9061 7.70241C19.9518 8.4887 16.9004 8.95955 12.7609 8.95955C8.62152 8.95955 5.57009 8.4887 3.61581 7.70241C1.70038 6.93213 1.11523 6.01098 1.11523 5.0807Z" fill="#067070"/>
<path fill-rule="evenodd" clip-rule="evenodd" d="M17.9246 15.0761C17.0604 15.9731 16.4117 17.0548 16.0274 18.2396C10.9034 18.788 5.72398 18.0308 0.971431 16.0384C0.884718 14.9673 0.823748 13.8942 0.788574 12.8201C6.1128 15.3838 12.1182 16.1744 17.9246 15.0761Z" fill="#067070"/>
<path fill-rule="evenodd" clip-rule="evenodd" d="M23.8376 15.4167C23.1345 15.4164 22.4382 15.5546 21.7886 15.8236C21.139 16.0925 20.5488 16.4868 20.0516 16.9839C19.5545 17.4811 19.1602 18.0713 18.8913 18.7209C18.6224 19.3705 18.4841 20.0668 18.4844 20.7698V22.3973C18.3671 22.4073 18.2498 22.4172 18.1324 22.427C17.8105 22.4573 17.5081 22.5947 17.2735 22.8172C17.039 23.0398 16.8859 23.3345 16.8387 23.6544L16.8044 23.867C16.6284 24.9733 16.4456 26.1184 16.4456 27.2933C16.4456 28.4681 16.6284 29.6155 16.8044 30.7218L16.8387 30.9321C16.8851 31.2523 17.038 31.5475 17.2727 31.7702C17.5074 31.9929 17.8102 32.13 18.1324 32.1595L19.0536 32.235C20.5987 32.3607 22.1987 32.491 23.8376 32.491C25.4764 32.491 27.0764 32.3607 28.6216 32.235L29.5427 32.1595C29.8646 32.1292 30.167 31.9918 30.4016 31.7693C30.6361 31.5468 30.7892 31.252 30.8364 30.9321L30.8684 30.7195C31.0467 29.6155 31.2296 28.4681 31.2296 27.2933C31.2296 26.1184 31.0467 24.9733 30.8684 23.8647L30.8364 23.6544C30.7892 23.3345 30.6361 23.0398 30.4016 22.8172C30.167 22.5947 29.8646 22.4573 29.5427 22.427C29.4246 22.4172 29.3065 22.4073 29.1884 22.3973V20.7698C29.189 20.0669 29.051 19.3707 28.7824 18.7211C28.5137 18.0715 28.1196 17.4812 27.6227 16.9841C27.1257 16.4869 26.5356 16.0925 25.8861 15.8236C25.2366 15.5547 24.5405 15.4164 23.8376 15.4167ZM25.7598 22.1481V20.7698C25.7598 20.2597 25.5572 19.7705 25.1965 19.4098C24.8358 19.049 24.3465 18.8464 23.8364 18.8464C23.3263 18.8464 22.8371 19.049 22.4763 19.4098C22.1156 19.7705 21.913 20.2597 21.913 20.7698V22.1481C22.5484 22.1161 23.1907 22.0955 23.8376 22.0955C24.4844 22.0955 25.1267 22.1161 25.7598 22.1481Z" fill="#067070"/>
</g>
<defs>
<clipPath id="clip0_88_485">
<rect width="32" height="32" fill="white" transform="translate(0 0.845276)"/>
</clipPath>
</defs>
</svg>
