<svg width="16" height="17" viewBox="0 0 16 17" fill="none" xmlns="http://www.w3.org/2000/svg">
<g clip-path="url(#clip0_51_1072)">
<path d="M6.42676 5.40021L7.60665 6.58011L9.57313 3.82703" stroke="#067070" stroke-width="1.14" stroke-linecap="round" stroke-linejoin="round"/>
<path d="M13.0755 1.99365H2.92446C2.50342 1.99365 2.16211 2.33497 2.16211 2.756V7.78383C2.16211 8.20486 2.50342 8.54618 2.92446 8.54618H13.0755C13.4965 8.54618 13.8378 8.20486 13.8378 7.78383V2.756C13.8378 2.33497 13.4965 1.99365 13.0755 1.99365Z" stroke="#067070" stroke-width="1.14" stroke-linecap="round" stroke-linejoin="round"/>
<path d="M4.26519 12.595C4.93428 12.595 5.47668 12.0526 5.47668 11.3835C5.47668 10.7145 4.93428 10.1721 4.26519 10.1721C3.59611 10.1721 3.05371 10.7145 3.05371 11.3835C3.05371 12.0526 3.59611 12.595 4.26519 12.595Z" stroke="#067070" stroke-width="1.14" stroke-linecap="round" stroke-linejoin="round"/>
<path d="M2.0835 15.7219C2.08736 15.3525 2.18477 14.9902 2.36663 14.6687C2.74988 13.9912 3.48594 13.561 4.26416 13.5593C5.04238 13.561 5.77843 13.9912 6.16168 14.6687C6.34355 14.9902 6.44097 15.3525 6.44482 15.7219" stroke="#067070" stroke-width="1.14" stroke-linecap="round" stroke-linejoin="round"/>
<path d="M11.7427 12.595C12.4118 12.595 12.9542 12.0526 12.9542 11.3835C12.9542 10.7145 12.4118 10.1721 11.7427 10.1721C11.0736 10.1721 10.5312 10.7145 10.5312 11.3835C10.5312 12.0526 11.0736 12.595 11.7427 12.595Z" stroke="#067070" stroke-width="1.14" stroke-linecap="round" stroke-linejoin="round"/>
<path d="M9.56104 15.7219C9.5649 15.3525 9.66231 14.9902 9.84417 14.6687C10.2274 13.9912 10.9635 13.561 11.7417 13.5593C12.5199 13.561 13.256 13.9912 13.6393 14.6687C13.8211 14.9902 13.9185 15.3525 13.9223 15.7219" stroke="#067070" stroke-width="1.14" stroke-linecap="round" stroke-linejoin="round"/>
</g>
<defs>
<clipPath id="clip0_51_1072">
<rect width="16" height="16" fill="white" transform="translate(0 0.845276)"/>
</clipPath>
</defs>
</svg>
