<svg width="32" height="33" viewBox="0 0 32 33" fill="none" xmlns="http://www.w3.org/2000/svg">
<path fill-rule="evenodd" clip-rule="evenodd" d="M23.5133 4.26926C24.0481 4.80412 24.0527 4.80869 24.3453 5.12869L24.4527 5.24297C26.2219 7.16297 26.007 10.0521 24.4161 11.9035C23.8036 12.6144 23.1407 13.3275 21.9979 14.4704C20.8687 15.6018 20.1533 16.267 19.4424 16.8795C17.5636 18.5024 14.6493 18.6784 12.7156 16.9138L12.5076 16.7241C12.2927 16.5321 12.2333 16.4795 11.7693 16.0133C11.5233 15.7753 11.2854 15.5291 11.0561 15.275L10.8664 15.0647C9.10414 13.131 9.28014 10.219 10.9007 8.34012C11.5133 7.63154 12.1807 6.91383 13.3099 5.78469C14.4527 4.64183 15.1659 3.97897 15.879 3.3664C17.7304 1.77326 20.6196 1.56069 22.5373 3.32754L22.6539 3.43497C22.9739 3.72983 22.9761 3.73212 23.5133 4.26926Z" fill="#92C6C5"/>
<path fill-rule="evenodd" clip-rule="evenodd" d="M20.7932 15.6521L27.4606 22.3195C27.7838 22.632 28.2168 22.805 28.6662 22.8013C29.1157 22.7976 29.5458 22.6175 29.8638 22.2998C30.1818 21.9821 30.3623 21.5522 30.3664 21.1027C30.3705 20.6533 30.1979 20.2202 29.8858 19.8967L23.2161 13.227C22.4267 14.0534 21.6189 14.862 20.7932 15.6521Z" fill="#067070"/>
<path fill-rule="evenodd" clip-rule="evenodd" d="M0.944092 30.1504C0.944092 29.6957 1.1247 29.2597 1.44619 28.9382C1.76769 28.6167 2.20372 28.4361 2.65838 28.4361H18.9647C19.4193 28.4361 19.8554 28.6167 20.1768 28.9382C20.4983 29.2597 20.6789 29.6957 20.6789 30.1504C20.6789 30.6051 20.4983 31.0411 20.1768 31.3626C19.8554 31.6841 19.4193 31.8647 18.9647 31.8647H2.65838C2.20372 31.8647 1.76769 31.6841 1.44619 31.3626C1.1247 31.0411 0.944092 30.6051 0.944092 30.1504Z" fill="#067070"/>
<path fill-rule="evenodd" clip-rule="evenodd" d="M3.68921 25.9127C3.68921 25.0034 4.05043 24.1313 4.69341 23.4883C5.3364 22.8453 6.20847 22.4841 7.11778 22.4841H14.5052C15.4145 22.4841 16.2866 22.8453 16.9296 23.4883C17.5726 24.1313 17.9338 25.0034 17.9338 25.9127V28.4361H3.68921V25.9127Z" fill="#92C6C5"/>
</svg>
