<svg width="24" height="25" viewBox="0 0 24 25" fill="none" xmlns="http://www.w3.org/2000/svg">
<path d="M12.5733 22.5808C12.2045 22.7231 11.796 22.7231 11.4272 22.5808C8.54707 21.4515 6.07406 19.4805 4.3306 16.925C2.58716 14.3694 1.65417 11.3478 1.65332 8.25424V3.59016C1.65332 3.16797 1.82103 2.76309 2.11956 2.46456C2.41809 2.16603 2.82297 1.99832 3.24516 1.99832H20.7554C21.1775 1.99832 21.5825 2.16603 21.8809 2.46456C22.1794 2.76309 22.3472 3.16797 22.3472 3.59016V8.23832C22.3496 11.3347 21.418 14.3597 19.6743 16.9184C17.9308 19.4772 15.456 21.4504 12.5733 22.5808Z" stroke="black" stroke-linecap="round" stroke-linejoin="round"/>
<path d="M8.41897 9.9575H15.5822C16.0598 9.9575 16.3781 10.2759 16.3781 10.7534V15.5289C16.3781 16.0065 16.0598 16.3249 15.5822 16.3249H8.41897C7.94141 16.3249 7.62305 16.0065 7.62305 15.5289V10.7534C7.62305 10.2759 7.94141 9.9575 8.41897 9.9575Z" stroke="black" stroke-linecap="round" stroke-linejoin="round"/>
<path d="M8.81641 9.9575V8.36566C8.81641 6.61464 10.2491 5.18199 12.0001 5.18199C13.7511 5.18199 15.1838 6.61464 15.1838 8.36566V9.9575" stroke="black" stroke-linecap="round" stroke-linejoin="round"/>
</svg>
