<svg width="64" height="64" viewBox="0 0 64 64" fill="none" xmlns="http://www.w3.org/2000/svg">
<g clip-path="url(#clip0_45_221)">
<path d="M48.7909 3.01714L29.9795 22.2171L26.8846 33.7554C26.4183 35.4789 28.1509 37.2251 29.8835 36.7771L41.6778 33.7417L61.0332 15.4194C64.2469 12.3749 64.0001 6.98514 60.4846 3.53372C57.0561 0.160002 51.8172 -0.0777127 48.7909 3.01257V3.01714Z" fill="#067070"/>
<path fill-rule="evenodd" clip-rule="evenodd" d="M24.4572 20.736C24.7133 19.7881 25.2092 18.9222 25.8972 18.2217L41.9887 1.78286C38.9001 1.56371 35.805 1.44936 32.7087 1.44C26.5967 1.44 19.9681 1.97943 13.9704 2.66057C11.4653 2.94674 9.13217 4.07658 7.35431 5.86441C5.57645 7.65224 4.45968 9.99169 4.18752 12.4983C3.53838 18.4549 2.99895 25.0743 2.99895 31.1497C2.99895 36.0594 3.34638 41.3166 3.82181 46.2903L0.758948 60.384C0.677221 60.7618 0.692643 61.1542 0.803774 61.5244C0.914904 61.8946 1.11811 62.2306 1.39439 62.501C1.67067 62.7713 2.01101 62.9672 2.38356 63.0702C2.75611 63.1733 3.14872 63.1802 3.52466 63.0903L16.6904 59.9543C21.9338 60.4846 27.5064 60.8686 32.7087 60.8686C38.8207 60.8686 45.4492 60.3383 51.4515 59.6663C53.9578 59.3833 56.2928 58.2545 58.0712 56.4661C59.8497 54.6776 60.9654 52.3364 61.2344 49.8286C61.8881 43.8629 62.4229 37.2343 62.4229 31.1543C62.4229 28.2743 62.3041 25.2663 62.1029 22.2674L45.6138 37.8926C44.9098 38.5594 44.0477 39.036 43.1087 39.2777L31.3144 42.3131C29.9335 42.6595 28.4859 42.6379 27.1159 42.2505C25.7459 41.8631 24.5014 41.1234 23.5064 40.1051C22.4955 39.1014 21.7658 37.8498 21.3904 36.4756C21.015 35.1013 21.0069 33.6526 21.3669 32.2743L24.4664 20.736H24.4572Z" fill="#92C6C5"/>
</g>
<defs>
<clipPath id="clip0_45_221">
<rect width="64" height="64" fill="white"/>
</clipPath>
</defs>
</svg>
