<svg width="32" height="33" viewBox="0 0 32 33" fill="none" xmlns="http://www.w3.org/2000/svg">
<path d="M3.86298 25.4853L2.90298 25.3664C2.36958 25.3015 1.87402 25.0574 1.49741 24.6741C1.12079 24.2909 0.885429 23.7911 0.829835 23.2567L0.726978 22.2395C0.480121 19.867 0.224121 17.4098 0.224121 14.8887C0.224121 12.3698 0.480121 9.91269 0.726978 7.54012L0.829835 6.52298C0.944121 5.42583 1.80812 4.54812 2.90298 4.41326L3.86298 4.29441C6.01612 4.02469 8.24698 3.74583 10.5327 3.74583C12.8184 3.74583 15.0493 4.02469 17.2024 4.29441L18.1624 4.41326C19.2573 4.54812 20.1213 5.42355 20.2333 6.52298L20.3384 7.54012L20.4253 8.38583H25.3304C26.8595 8.38583 28.2904 9.14698 29.095 10.4475C30.2607 12.3333 31.7761 14.9641 31.7761 15.8967V23.1973C31.7761 23.8035 31.5353 24.3849 31.1066 24.8135C30.678 25.2422 30.0966 25.483 29.4904 25.483C25.8561 25.4853 12.3887 26.555 3.86069 25.4853H3.86298Z" fill="#92C6C5"/>
<path fill-rule="evenodd" clip-rule="evenodd" d="M31.7761 16.555H23.1041C22.5243 16.5551 21.9661 16.3349 21.5426 15.939C21.119 15.543 20.8618 15.0009 20.8229 14.4224L20.4207 8.38583H25.3304C26.8618 8.38583 28.2904 9.14698 29.0949 10.4475C30.2607 12.3333 31.7761 14.9641 31.7761 15.8967V16.555Z" fill="#067070"/>
<path d="M7.5132 29.9104C9.9932 29.9104 11.3875 28.5161 11.3875 26.0338C11.3875 23.5561 9.9932 22.1595 7.5132 22.1595C5.0332 22.1595 3.63892 23.5538 3.63892 26.0338C3.63892 28.5138 5.0332 29.9104 7.5132 29.9104Z" fill="#067070"/>
<path d="M22.4824 29.9104C24.9624 29.9104 26.3567 28.5161 26.3567 26.0338C26.3567 23.5561 24.9624 22.1595 22.4824 22.1595C20.0024 22.1595 18.6082 23.5538 18.6082 26.0338C18.6082 28.5138 20.0024 29.9104 22.4824 29.9104Z" fill="#067070"/>
</svg>
